<?xml version="1.0" encoding="UTF-8" standalone="no"?>
<!-- Created with Inkscape (http://www.inkscape.org/) -->

<svg
   xmlns:dc="http://purl.org/dc/elements/1.1/"
   xmlns:cc="http://creativecommons.org/ns#"
   xmlns:rdf="http://www.w3.org/1999/02/22-rdf-syntax-ns#"
   xmlns:svg="http://www.w3.org/2000/svg"
   xmlns="http://www.w3.org/2000/svg"
   xmlns:sodipodi="http://sodipodi.sourceforge.net/DTD/sodipodi-0.dtd"
   xmlns:inkscape="http://www.inkscape.org/namespaces/inkscape"
   width="512"
   height="512"
   id="svg2"
   version="1.1"
   inkscape:version="0.48.2 r9819"
   sodipodi:docname="Sais_blue.svg"
   inkscape:export-filename="Sais_blue.png"
   inkscape:export-xdpi="90"
   inkscape:export-ydpi="90">
  <defs
     id="defs4" />
  <sodipodi:namedview
     id="base"
     pagecolor="#000000"
     bordercolor="#666666"
     borderopacity="1.0"
     inkscape:pageopacity="0"
     inkscape:pageshadow="2"
     inkscape:zoom="0.9899495"
     inkscape:cx="302.71183"
     inkscape:cy="244.87191"
     inkscape:document-units="px"
     inkscape:current-layer="layer1"
     showgrid="false"
     showguides="true"
     inkscape:guide-bbox="true"
     inkscape:window-width="1920"
     inkscape:window-height="1026"
     inkscape:window-x="0"
     inkscape:window-y="26"
     inkscape:window-maximized="1" />
  <metadata
     id="metadata7">
    <rdf:RDF>
      <cc:Work
         rdf:about="">
        <dc:format>image/svg+xml</dc:format>
        <dc:type
           rdf:resource="http://purl.org/dc/dcmitype/StillImage" />
        <dc:title></dc:title>
      </cc:Work>
    </rdf:RDF>
  </metadata>
  <g
     inkscape:label="Layer 1"
     inkscape:groupmode="layer"
     id="layer1">
    <path
       inkscape:connector-curvature="0"
       style="fill:#204a87;fill-opacity:1;stroke:none"
       d="m 156.18751,21.997549 90.625,164.875001 -82.875,125.875 c -15.37912,-1.38412 -18.21232,-5.14552 -25.625,-17.5 14.63932,-26.27776 21.00032,-54.79672 28.375,-83.625 -37.24512,53.01984 -72.985643,76.1772 -29.875,130.25 l -1,5.375 -5.375,-3.25 -69.750001,116.625 5,2.875 -4.125,6.875 c 2.33796,7.6008 29.506995,19.91116 33.999998,19.625 l 4.000005,-6.625 5.874998,3.375 68.75,-116 -5.375,-3.25 0.5,-0.75 5.125,-3.875 c 46.15204,10.39964 65.49092,-11.37212 81.375,-42.25 16.026,31.5794 34.57684,52.52576 81.49998,42.25 l 5.125,3.875 0.5,0.75 -5.125,3.25 68.75,116 5.75,-3.375 3.875,6.625 c 4.493,0.286 31.66204,-12.0242 34,-19.625 l -4,-6.75 5.125,-3 -70.25,-116.875 -5.125,3.25 -1,-5.125 c 43.28684,-54.38764 6.63552,-78.2928 -29.75,-130.25 7.37468,28.82828 13.73568,57.34724 28.375,83.625 -7.41268,12.35448 -10.37092,16.11588 -25.75,17.5 L 264.93751,186.87255 355.56249,21.997549 255.81251,173.24755 156.18751,21.997549 z m 99.625,181.250001 68.375,124.25 c -9.80964,10.36484 -14.37813,11.8562 -29.625,10.125 -9.25104,-12.90488 -19.23292,-24.70732 -29.875,-35.625 4.22404,-9.17868 8.5238,-18.60636 13.375,-28 -7.32104,6.50044 -14.68176,12.97124 -21.875,19.625 -7.25136,-6.90284 -14.73736,-13.45256 -22.5,-19.625 4.9924,9.66712 9.2976,19.13312 13.5,28.25 -10.90932,10.7072 -21.2008,22.13568 -30,35.375 -15.24692,1.7312 -19.8154,0.24 -29.625,-10.125 l 68.25,-124.25 z"
       id="path3185" />
  </g>
</svg>
